<?xml version="1.0" encoding="UTF-8"?>
<!DOCTYPE svg PUBLIC "-//W3C//DTD SVG 1.1//EN" "http://www.w3.org/Graphics/SVG/1.1/DTD/svg11.dtd">
<svg xmlns="http://www.w3.org/2000/svg" version="1.1" width="500px" height="500px" style="shape-rendering:geometricPrecision; text-rendering:geometricPrecision; image-rendering:optimizeQuality; fill-rule:evenodd; clip-rule:evenodd" xmlns:xlink="http://www.w3.org/1999/xlink">
<g><path style="opacity:1" fill="#fefefe" d="M -0.5,-0.5 C 166.167,-0.5 332.833,-0.5 499.5,-0.5C 499.5,166.167 499.5,332.833 499.5,499.5C 332.833,499.5 166.167,499.5 -0.5,499.5C -0.5,332.833 -0.5,166.167 -0.5,-0.5 Z"/></g>
<g><path style="opacity:1" fill="#a4ecef" d="M 232.5,144.5 C 234.833,144.5 237.167,144.5 239.5,144.5C 239.5,146.167 239.5,147.833 239.5,149.5C 237.5,149.5 235.5,149.5 233.5,149.5C 234.685,154.425 235.351,159.425 235.5,164.5C 233.533,164.739 231.699,164.406 230,163.5C 229.165,159.821 228.332,156.155 227.5,152.5C 225.257,151.526 222.924,151.192 220.5,151.5C 220.286,149.856 220.62,148.356 221.5,147C 225.347,146.367 229.014,145.533 232.5,144.5 Z"/></g>
<g><path style="opacity:1" fill="#a9eef0" d="M 263.5,144.5 C 267.527,145.139 271.527,145.972 275.5,147C 279.489,150.955 279.489,154.955 275.5,159C 272.469,159.495 269.469,159.329 266.5,158.5C 266.5,160.5 266.5,162.5 266.5,164.5C 264.533,164.739 262.699,164.406 261,163.5C 260.602,156.993 261.436,150.659 263.5,144.5 Z"/></g>
<g><path style="opacity:1" fill="#a3ecef" d="M 205.5,152.5 C 213.207,151.201 215.873,154.201 213.5,161.5C 215.269,163.557 217.269,165.39 219.5,167C 218.107,168.363 216.441,169.196 214.5,169.5C 212.19,168.205 209.857,166.871 207.5,165.5C 207.167,166 206.833,166.5 206.5,167C 207.609,169.047 208.276,171.213 208.5,173.5C 206.401,174.231 204.401,174.231 202.5,173.5C 199.973,168.585 197.64,163.585 195.5,158.5C 198.562,155.972 201.896,153.972 205.5,152.5 Z"/></g>
<g><path style="opacity:1" fill="#a8edf0" d="M 293.5,153.5 C 299.208,153.459 301.541,156.292 300.5,162C 300.365,166.911 299.699,171.744 298.5,176.5C 295.167,175.833 293.167,173.833 292.5,170.5C 290.019,168.195 287.686,168.195 285.5,170.5C 283.668,169.752 282.001,168.752 280.5,167.5C 284.855,162.813 289.188,158.146 293.5,153.5 Z"/></g>
<g><path style="opacity:1" fill="#fafefe" d="M 204.5,157.5 C 205.833,157.5 207.167,157.5 208.5,157.5C 208.254,160.47 206.588,161.803 203.5,161.5C 203.433,160.041 203.766,158.708 204.5,157.5 Z"/></g>
<g><path style="opacity:1" fill="#a2ecef" d="M 314.5,164.5 C 316.371,164.859 317.871,165.859 319,167.5C 319.333,171.5 319.667,175.5 320,179.5C 322.046,177.624 323.879,175.624 325.5,173.5C 326.981,174.48 328.315,175.647 329.5,177C 325.632,181.865 321.465,186.365 317,190.5C 315.739,190.241 314.739,189.574 314,188.5C 313.827,184.459 313.327,180.459 312.5,176.5C 310.851,178.65 309.018,180.65 307,182.5C 305.702,181.44 304.535,180.274 303.5,179C 306.985,174.017 310.651,169.184 314.5,164.5 Z"/></g>
<g><path style="opacity:1" fill="#a8edf0" d="M 180.5,166.5 C 186.814,169.657 192.814,173.323 198.5,177.5C 197.135,178.941 195.635,180.274 194,181.5C 193.333,180.833 192.667,180.167 192,179.5C 190.786,181.049 189.286,182.215 187.5,183C 186.576,183.85 186.576,184.85 187.5,186C 186.022,187.478 184.522,188.978 183,190.5C 180.636,184.409 178.469,178.242 176.5,172C 177.65,170.019 178.984,168.186 180.5,166.5 Z"/></g>
<g><path style="opacity:1" fill="#a3ecef" d="M 163.5,182.5 C 169.37,185.368 174.704,189.034 179.5,193.5C 179.014,195.497 177.847,196.831 176,197.5C 173.073,196.283 170.573,194.45 168.5,192C 167.833,191.333 167.167,191.333 166.5,192C 169.538,194.703 172.205,197.703 174.5,201C 173.902,203.048 172.569,204.215 170.5,204.5C 167.59,203.027 164.59,202.194 161.5,202C 164.341,203.586 167.007,205.42 169.5,207.5C 168.974,209.23 167.974,210.564 166.5,211.5C 160.929,208.554 155.929,204.888 151.5,200.5C 152.658,197.829 154.491,195.829 157,194.5C 160.152,195.78 163.319,196.613 166.5,197C 163.794,194.629 161.461,191.963 159.5,189C 161.058,186.948 162.392,184.781 163.5,182.5 Z"/></g>
<g><path style="opacity:1" fill="#a3ecef" d="M 336.5,185.5 C 341.556,189.698 344.056,195.031 344,201.5C 339.385,208.203 333.719,209.203 327,204.5C 325.414,201.659 323.58,198.993 321.5,196.5C 326.39,192.568 331.39,188.901 336.5,185.5 Z"/></g>
<g><path style="opacity:1" fill="#f9fdfe" d="M 335.5,193.5 C 336.496,193.414 337.329,193.748 338,194.5C 338.896,199.638 336.729,202.138 331.5,202C 330.426,201.261 329.759,200.261 329.5,199C 331.375,196.955 333.375,195.122 335.5,193.5 Z"/></g>
<g><path style="opacity:1" fill="#2f2f2f" d="M 202.5,201.5 C 206.846,201.334 211.179,201.501 215.5,202C 217.64,202.973 219.307,204.473 220.5,206.5C 208.543,212.479 198.543,220.813 190.5,231.5C 186.774,227.583 185.608,222.916 187,217.5C 190.355,210.313 195.522,204.979 202.5,201.5 Z"/></g>
<g><path style="opacity:1" fill="#2f2f2f" d="M 289.5,201.5 C 301.586,199.794 310.753,204.128 317,214.5C 319.468,220.628 318.801,226.295 315,231.5C 307.4,220.891 297.733,212.891 286,207.5C 285.333,206.5 285.333,205.5 286,204.5C 287.518,203.837 288.685,202.837 289.5,201.5 Z"/></g>
<g><path style="opacity:1" fill="#a4edef" d="M 147.5,212.5 C 148.833,212.5 150.167,212.5 151.5,212.5C 151.622,215.257 150.455,217.257 148,218.5C 147.333,219.833 147.333,221.167 148,222.5C 150.346,218.821 153.346,215.821 157,213.5C 160.767,214.431 162.934,216.764 163.5,220.5C 162.901,223.702 161.734,226.702 160,229.5C 158.211,231.229 156.044,231.896 153.5,231.5C 153.188,227.788 154.688,225.121 158,223.5C 158.749,222.365 158.583,221.365 157.5,220.5C 155.34,222.831 153.34,225.331 151.5,228C 142.732,228.671 140.232,224.838 144,216.5C 145.032,214.973 146.199,213.64 147.5,212.5 Z"/></g>
<g><path style="opacity:1" fill="#a2ecef" d="M 334.5,214.5 C 341.422,214.188 348.256,214.521 355,215.5C 355.991,217.447 356.325,219.447 356,221.5C 351.443,225.858 346.61,229.858 341.5,233.5C 340.304,232.441 339.637,231.107 339.5,229.5C 340.668,226.504 340.668,223.504 339.5,220.5C 338.167,220.5 336.833,220.5 335.5,220.5C 335.167,218.5 334.833,216.5 334.5,214.5 Z"/></g>
<g><path style="opacity:1" fill="#effbfc" d="M 343.5,219.5 C 345.857,219.337 348.19,219.503 350.5,220C 348.695,220.972 347.028,222.139 345.5,223.5C 344.295,222.423 343.628,221.09 343.5,219.5 Z"/></g>
<g><path style="opacity:1" fill="#2d2d2d" d="M 217.5,278.5 C 216.5,278.5 215.5,278.5 214.5,278.5C 203.724,270.206 202.724,260.706 211.5,250C 217.546,244.38 224.546,242.714 232.5,245C 238.993,249.163 241.159,254.996 239,262.5C 235.525,272.818 228.358,278.152 217.5,278.5 Z"/></g>
<g><path style="opacity:1" fill="#2e2e2e" d="M 291.5,277.5 C 288.946,278.388 286.279,278.721 283.5,278.5C 269.54,274.258 264.04,264.924 267,250.5C 274.348,242.115 282.514,241.282 291.5,248C 300.127,255.65 301.627,264.483 296,274.5C 294.385,275.386 292.885,276.386 291.5,277.5 Z"/></g>
<g><path style="opacity:1" fill="#a0ecef" d="M 139.5,248.5 C 149.19,248.168 158.856,248.502 168.5,249.5C 163.667,249.833 158.833,250.167 154,250.5C 148.784,250.494 143.951,249.827 139.5,248.5 Z"/></g>
<g><path style="opacity:1" fill="#9fecef" d="M 330.5,248.5 C 340.19,248.168 349.856,248.502 359.5,249.5C 354.667,249.833 349.833,250.167 345,250.5C 339.784,250.494 334.951,249.827 330.5,248.5 Z"/></g>
<g><path style="opacity:1" fill="#d9d9d9" d="M 228.5,251.5 C 232.473,252.075 233.473,254.242 231.5,258C 226.382,257.824 225.382,255.658 228.5,251.5 Z"/></g>
<g><path style="opacity:1" fill="#d8d8d8" d="M 274.5,251.5 C 278.473,252.075 279.473,254.242 277.5,258C 272.382,257.824 271.382,255.658 274.5,251.5 Z"/></g>
<g><path style="opacity:1" fill="#fe807f" d="M 164.5,265.5 C 167.596,269.975 168.763,274.975 168,280.5C 166,281.833 164,281.833 162,280.5C 160.2,285.408 157.033,286.574 152.5,284C 149.95,279.76 148.45,275.26 148,270.5C 148.804,271.804 149.971,272.471 151.5,272.5C 155.47,271.232 159.47,270.065 163.5,269C 164.337,267.989 164.67,266.822 164.5,265.5 Z"/></g>
<g><path style="opacity:1" fill="#fff3f3" d="M 162.5,272.5 C 163.833,272.5 165.167,272.5 166.5,272.5C 166.66,274.199 166.494,275.866 166,277.5C 163.218,279.011 161.385,278.178 160.5,275C 161.056,273.989 161.722,273.156 162.5,272.5 Z"/></g>
<g><path style="opacity:1" fill="#fff5f5" d="M 156.5,274.5 C 157.5,274.5 158.5,274.5 159.5,274.5C 160.827,280.674 158.494,282.841 152.5,281C 151.978,280.439 151.645,279.772 151.5,279C 152.43,276.565 154.097,275.065 156.5,274.5 Z"/></g>
<g><path style="opacity:1" fill="#fe7e7d" d="M 333.5,269.5 C 334.873,269.343 336.207,269.51 337.5,270C 341.284,273.913 345.451,274.079 350,270.5C 350.265,272.163 349.765,273.663 348.5,275C 345.568,276.145 342.568,276.978 339.5,277.5C 339.5,278.5 339.5,279.5 339.5,280.5C 342.327,281.974 344.827,281.64 347,279.5C 346.981,282.244 346.314,284.911 345,287.5C 344.626,286.584 344.126,285.75 343.5,285C 338.99,283.997 334.657,282.497 330.5,280.5C 329.522,280.977 328.689,281.643 328,282.5C 327.99,277.358 329.823,273.025 333.5,269.5 Z"/></g>
<g><path style="opacity:1" fill="#fff7f7" d="M 331.5,273.5 C 333.527,273.338 335.527,273.505 337.5,274C 338.38,275.356 338.714,276.856 338.5,278.5C 335.794,278.425 333.127,278.092 330.5,277.5C 330.433,276.041 330.766,274.708 331.5,273.5 Z"/></g>
<g><path style="opacity:1" fill="#fcd3d3" d="M 291.5,277.5 C 294.945,277.954 298.112,279.288 301,281.5C 301.865,283.888 301.032,285.388 298.5,286C 294.5,286.667 290.5,286.667 286.5,286C 284.398,284.267 284.065,282.267 285.5,280C 284.584,279.722 283.918,279.222 283.5,278.5C 286.279,278.721 288.946,278.388 291.5,277.5 Z"/></g>
<g><path style="opacity:1" fill="#fdd3d2" d="M 214.5,278.5 C 215.5,278.5 216.5,278.5 217.5,278.5C 218.315,279.837 219.482,280.837 221,281.5C 221.667,282.5 221.667,283.5 221,284.5C 216.391,286.51 211.558,287.01 206.5,286C 203.808,283.368 204.141,281.034 207.5,279C 209.81,278.503 212.143,278.337 214.5,278.5 Z"/></g>
<g><path style="opacity:1" fill="#333333" d="M 246.5,273.5 C 250.514,273.334 254.514,273.501 258.5,274C 261.993,275.478 262.326,277.478 259.5,280C 257.564,280.813 255.564,281.313 253.5,281.5C 253.49,288.314 256.823,290.814 263.5,289C 264.931,288.535 266.097,287.701 267,286.5C 267.507,287.996 267.007,289.163 265.5,290C 260.762,292.366 256.429,291.866 252.5,288.5C 247.632,292.47 242.798,292.47 238,288.5C 237.312,287.668 237.479,287.002 238.5,286.5C 242.703,290.461 246.87,290.461 251,286.5C 251.494,284.866 251.66,283.199 251.5,281.5C 244.656,281.695 242.989,279.029 246.5,273.5 Z"/></g>
<g><path style="opacity:1" fill="#fe807f" d="M 172.5,289.5 C 174.59,289.45 175.923,290.45 176.5,292.5C 172.056,297.436 168.223,302.77 165,308.5C 163.5,306.333 162,304.167 160.5,302C 164.29,302.88 166.456,301.38 167,297.5C 164.28,294.097 161.28,293.763 158,296.5C 156.978,295.646 156.145,294.646 155.5,293.5C 161.464,292.889 167.131,291.556 172.5,289.5 Z"/></g>
<g><path style="opacity:1" fill="#fff3f3" d="M 168.5,292.5 C 172.193,293.247 172.193,294.58 168.5,296.5C 166.066,294.853 166.066,293.52 168.5,292.5 Z"/></g>
<g><path style="opacity:1" fill="#fe7e7d" d="M 320.5,294.5 C 323.251,287.962 327.917,286.129 334.5,289C 339.833,294.667 339.833,300.333 334.5,306C 328.882,309.81 324.049,308.977 320,303.5C 319.195,300.304 319.362,297.304 320.5,294.5 Z"/></g>
<g><path style="opacity:1" fill="#fffafa" d="M 320.5,294.5 C 325.875,290.314 331.042,290.647 336,295.5C 337.989,301.118 336.155,304.118 330.5,304.5C 324.112,304.113 320.779,300.779 320.5,294.5 Z"/></g>
<g><path style="opacity:1" fill="#fe8180" d="M 181.5,300.5 C 185.165,303.333 188.332,306.666 191,310.5C 191.987,314.348 190.487,316.348 186.5,316.5C 185.817,323.501 182.484,325.168 176.5,321.5C 174.684,319.183 172.684,317.016 170.5,315C 174.893,312.616 178.726,309.449 182,305.5C 182.384,303.803 182.218,302.137 181.5,300.5 Z"/></g>
<g><path style="opacity:1" fill="#fff5f4" d="M 181.5,311.5 C 182.793,309.704 184.293,308.037 186,306.5C 189.413,309.092 189.247,311.425 185.5,313.5C 184.14,312.82 182.807,312.153 181.5,311.5 Z"/></g>
<g><path style="opacity:1" fill="#fe807f" d="M 312.5,304.5 C 314.681,304.284 316.347,305.117 317.5,307C 315.874,306.805 314.207,306.805 312.5,307C 310.993,307.837 310.493,309.004 311,310.5C 314.204,313.369 317.037,316.535 319.5,320C 320.5,320.333 321.5,320.667 322.5,321C 320.599,323.613 318.265,325.28 315.5,326C 317.007,325.163 317.507,323.996 317,322.5C 313.796,319.631 310.963,316.465 308.5,313C 305.883,313.26 304.05,314.76 303,317.5C 302.308,316.975 301.808,316.308 301.5,315.5C 305.521,312.146 309.188,308.479 312.5,304.5 Z"/></g>
<g><path style="opacity:1" fill="#fff9f9" d="M 181.5,311.5 C 182.822,313.311 183.322,315.311 183,317.5C 181.815,319.844 179.982,320.677 177.5,320C 176.175,316.101 177.508,313.267 181.5,311.5 Z"/></g>
<g><path style="opacity:1" fill="#fe7979" d="M 200.5,319.5 C 199.197,322.355 199.197,325.355 200.5,328.5C 201.107,328.376 201.44,328.043 201.5,327.5C 204.346,326.666 206.513,325 208,322.5C 209.255,323.211 210.421,324.044 211.5,325C 206.031,326.474 201.531,329.308 198,333.5C 197.915,335.085 197.749,336.418 197.5,337.5C 195.483,336.826 193.817,335.659 192.5,334C 194.049,332.786 195.215,331.286 196,329.5C 196.667,325.167 196.667,320.833 196,316.5C 195.5,316 195,315.5 194.5,315C 197.299,315.732 199.966,317.066 202.5,319C 201.906,319.464 201.239,319.631 200.5,319.5 Z"/></g>
<g><path style="opacity:1" fill="#fe7d7c" d="M 297.5,317.5 C 299.765,317.441 300.098,318.274 298.5,320C 300.738,324.897 303.738,329.231 307.5,333C 305.833,334.167 304.167,335.333 302.5,336.5C 302.251,335.418 302.085,334.085 302,332.5C 299.752,329.672 297.752,326.672 296,323.5C 294.938,321.792 293.771,321.126 292.5,321.5C 294.21,320.113 295.877,318.779 297.5,317.5 Z"/></g>
<g><path style="opacity:1" fill="#ffbcbc" d="M 200.5,319.5 C 200.194,322.385 200.527,325.052 201.5,327.5C 201.44,328.043 201.107,328.376 200.5,328.5C 199.197,325.355 199.197,322.355 200.5,319.5 Z"/></g>
<g><path style="opacity:1" fill="#fe807f" d="M 289.5,322.5 C 289.794,324.276 289.96,326.276 290,328.5C 291.807,332.756 293.307,337.089 294.5,341.5C 288.386,339.527 282.552,336.861 277,333.5C 277.696,337.114 278.53,340.781 279.5,344.5C 280.873,344.343 282.207,344.51 283.5,345C 281.351,346.164 279.185,347.33 277,348.5C 276.883,347.05 277.05,345.55 277.5,344C 276.06,339.848 274.727,335.681 273.5,331.5C 272.448,331.649 271.448,331.483 270.5,331C 272.167,330.167 273.833,329.333 275.5,328.5C 280.167,330.833 284.833,333.167 289.5,335.5C 289.512,331.729 288.179,328.229 285.5,325C 287.066,324.392 288.4,323.558 289.5,322.5 Z"/></g>
<g><path style="opacity:1" fill="#fe7c7b" d="M 222.5,330.5 C 224.264,329.288 225.93,329.621 227.5,331.5C 228.821,335.784 229.988,340.117 231,344.5C 233.641,340.198 236.641,336.198 240,332.5C 241.225,332.862 242.391,333.362 243.5,334C 242.376,334.839 241.709,336.006 241.5,337.5C 241.035,340.15 240.702,342.816 240.5,345.5C 240.613,347.641 241.28,349.475 242.5,351C 239.485,351.201 236.485,350.868 233.5,350C 234.448,349.517 235.448,349.351 236.5,349.5C 236.724,345.796 236.89,342.129 237,338.5C 234.578,342.344 231.911,346.01 229,349.5C 227.524,345.275 226.19,340.942 225,336.5C 222.284,340.339 222.117,344.172 224.5,348C 222.087,348.484 219.754,348.15 217.5,347C 219.333,346.5 220.5,345.333 221,343.5C 221.629,339.948 222.462,336.448 223.5,333C 223.472,331.93 223.139,331.097 222.5,330.5 Z"/></g>
<g><path style="opacity:1" fill="#fe7d7c" d="M 255.5,331.5 C 265.04,330.87 269.206,335.204 268,344.5C 264.723,350.109 259.89,351.942 253.5,350C 248.845,347.103 247.345,342.937 249,337.5C 250.494,334.686 252.66,332.686 255.5,331.5 Z"/></g>
<g><path style="opacity:1" fill="#fffafa" d="M 254.5,333.5 C 256.857,333.337 259.19,333.503 261.5,334C 264.36,337.681 265.193,341.848 264,346.5C 258.891,351.007 254.891,350.007 252,343.5C 251.024,339.673 251.857,336.34 254.5,333.5 Z"/></g>
</svg>
